<svg width="128" height="128" viewBox="0 0 128 128" fill="none" xmlns="http://www.w3.org/2000/svg">
  <rect width="128" height="128" rx="28" fill="#F8FAFC"/>
  <path d="M64 16c-19.33 0-35 15.67-35 35 0 26.25 35 61 35 61s35-34.75 35-61c0-19.33-15.67-35-35-35Z" fill="#34A853"/>
  <path d="M64 16c-19.33 0-35 15.67-35 35 0 8.61 3.77 18.15 8.77 27.09L64 51V16Z" fill="#4285F4"/>
  <path d="M64 51 37.77 78.09C48.39 97.04 64 112 64 112s15.61-14.96 26.23-33.91L64 51Z" fill="#FBBC04"/>
  <path d="M90.23 78.09C95.23 69.15 99 59.61 99 51c0-19.33-15.67-35-35-35v35l26.23 27.09Z" fill="#EA4335"/>
  <circle cx="64" cy="51" r="13" fill="#fff"/>
</svg>
