<svg width="128" height="128" viewBox="0 0 128 128" fill="none" xmlns="http://www.w3.org/2000/svg">
  <rect width="128" height="128" rx="28" fill="#101418"/>
  <path d="M64 18C38.595 18 18 38.595 18 64s20.595 46 46 46 46-20.595 46-46-20.595-46-46-46Zm0 8c21.012 0 38 16.988 38 38s-16.988 38-38 38-38-16.988-38-38 16.988-38 38-38Z" fill="#fff"/>
  <path d="M76.174 44.817 88 40 83.183 51.826 49.826 85.183 40 88l2.817-9.826 33.357-33.357Z" fill="#4BE58A"/>
  <circle cx="64" cy="64" r="7" fill="#fff"/>
</svg>
